<?xml version="1.0" standalone="no"?>
<!DOCTYPE svg PUBLIC "-//W3C//DTD SVG 20010904//EN"
  "http://www.w3.org/TR/2001/REC-SVG-20010904/DTD/svg10.dtd">
<svg width="19" height="17">
  <circle cx="0" cy="0" r="1" fill="rgba(254,254,254,1)"/>
  <circle cx="1" cy="0" r="1" fill="rgba(254,254,254,1)"/>
  <circle cx="2" cy="0" r="1" fill="rgba(254,254,254,1)"/>
  <circle cx="3" cy="0" r="1" fill="rgba(254,254,254,1)"/>
  <circle cx="4" cy="0" r="1" fill="rgba(253,253,253,1)"/>
  <circle cx="5" cy="0" r="1" fill="rgba(254,254,254,1)"/>
  <circle cx="6" cy="0" r="1" fill="rgba(254,254,254,1)"/>
  <circle cx="7" cy="0" r="1" fill="white"/>
  <circle cx="8" cy="0" r="1" fill="rgba(254,254,254,1)"/>
  <circle cx="9" cy="0" r="1" fill="rgba(254,254,254,1)"/>
  <circle cx="10" cy="0" r="1" fill="rgba(254,254,254,1)"/>
  <circle cx="11" cy="0" r="1" fill="white"/>
  <circle cx="12" cy="0" r="1" fill="white"/>
  <circle cx="13" cy="0" r="1" fill="rgba(254,254,254,1)"/>
  <circle cx="14" cy="0" r="1" fill="rgba(254,254,254,1)"/>
  <circle cx="15" cy="0" r="1" fill="rgba(254,254,254,1)"/>
  <circle cx="16" cy="0" r="1" fill="rgba(254,254,254,1)"/>
  <circle cx="17" cy="0" r="1" fill="rgba(254,254,254,1)"/>
  <circle cx="18" cy="0" r="1" fill="rgba(254,254,254,1)"/>
  <circle cx="0" cy="1" r="1" fill="rgba(254,254,254,1)"/>
  <circle cx="1" cy="1" r="1" fill="rgba(254,254,254,1)"/>
  <circle cx="2" cy="1" r="1" fill="white"/>
  <circle cx="3" cy="1" r="1" fill="rgba(254,254,254,1)"/>
  <circle cx="4" cy="1" r="1" fill="rgba(254,254,254,1)"/>
  <circle cx="5" cy="1" r="1" fill="white"/>
  <circle cx="6" cy="1" r="1" fill="rgba(254,254,254,1)"/>
  <circle cx="7" cy="1" r="1" fill="rgba(254,254,254,1)"/>
  <circle cx="8" cy="1" r="1" fill="white"/>
  <circle cx="9" cy="1" r="1" fill="rgba(254,254,254,1)"/>
  <circle cx="10" cy="1" r="1" fill="rgba(254,254,254,1)"/>
  <circle cx="11" cy="1" r="1" fill="rgba(254,254,254,1)"/>
  <circle cx="12" cy="1" r="1" fill="rgba(254,254,254,1)"/>
  <circle cx="13" cy="1" r="1" fill="rgba(254,254,254,1)"/>
  <circle cx="14" cy="1" r="1" fill="rgba(254,254,254,1)"/>
  <circle cx="15" cy="1" r="1" fill="rgba(254,254,254,1)"/>
  <circle cx="16" cy="1" r="1" fill="white"/>
  <circle cx="17" cy="1" r="1" fill="rgba(254,254,254,1)"/>
  <circle cx="18" cy="1" r="1" fill="rgba(254,254,254,1)"/>
  <circle cx="0" cy="2" r="1" fill="white"/>
  <circle cx="1" cy="2" r="1" fill="rgba(254,254,254,1)"/>
  <circle cx="2" cy="2" r="1" fill="rgba(248,249,249,1)"/>
  <circle cx="3" cy="2" r="1" fill="rgba(246,248,248,1)"/>
  <circle cx="4" cy="2" r="1" fill="rgba(245,247,247,1)"/>
  <circle cx="5" cy="2" r="1" fill="rgba(247,249,249,1)"/>
  <circle cx="6" cy="2" r="1" fill="rgba(246,248,248,1)"/>
  <circle cx="7" cy="2" r="1" fill="rgba(246,248,248,1)"/>
  <circle cx="8" cy="2" r="1" fill="grey98"/>
  <circle cx="9" cy="2" r="1" fill="rgba(254,254,254,1)"/>
  <circle cx="10" cy="2" r="1" fill="rgba(254,254,254,1)"/>
  <circle cx="11" cy="2" r="1" fill="white"/>
  <circle cx="12" cy="2" r="1" fill="white"/>
  <circle cx="13" cy="2" r="1" fill="rgba(254,254,254,1)"/>
  <circle cx="14" cy="2" r="1" fill="rgba(254,254,254,1)"/>
  <circle cx="15" cy="2" r="1" fill="rgba(254,254,254,1)"/>
  <circle cx="16" cy="2" r="1" fill="white"/>
  <circle cx="17" cy="2" r="1" fill="rgba(254,254,254,1)"/>
  <circle cx="18" cy="2" r="1" fill="white"/>
  <circle cx="0" cy="3" r="1" fill="rgba(254,254,254,1)"/>
  <circle cx="1" cy="3" r="1" fill="rgba(254,254,254,1)"/>
  <circle cx="2" cy="3" r="1" fill="white"/>
  <circle cx="3" cy="3" r="1" fill="rgba(254,254,254,1)"/>
  <circle cx="4" cy="3" r="1" fill="rgba(253,253,253,1)"/>
  <circle cx="5" cy="3" r="1" fill="rgba(254,254,254,1)"/>
  <circle cx="6" cy="3" r="1" fill="rgba(254,254,254,1)"/>
  <circle cx="7" cy="3" r="1" fill="white"/>
  <circle cx="8" cy="3" r="1" fill="white"/>
  <circle cx="9" cy="3" r="1" fill="rgba(251,251,251,1)"/>
  <circle cx="10" cy="3" r="1" fill="rgba(254,254,254,1)"/>
  <circle cx="11" cy="3" r="1" fill="white"/>
  <circle cx="12" cy="3" r="1" fill="white"/>
  <circle cx="13" cy="3" r="1" fill="rgba(254,254,254,1)"/>
  <circle cx="14" cy="3" r="1" fill="rgba(254,254,254,1)"/>
  <circle cx="15" cy="3" r="1" fill="rgba(254,254,254,1)"/>
  <circle cx="16" cy="3" r="1" fill="rgba(254,254,254,1)"/>
  <circle cx="17" cy="3" r="1" fill="rgba(254,254,254,1)"/>
  <circle cx="18" cy="3" r="1" fill="rgba(254,254,254,1)"/>
  <circle cx="0" cy="4" r="1" fill="rgba(254,254,254,1)"/>
  <circle cx="1" cy="4" r="1" fill="rgba(213,219,220,1)"/>
  <circle cx="2" cy="4" r="1" fill="rgba(37,67,75,1)"/>
  <circle cx="3" cy="4" r="1" fill="rgba(11,41,48,1)"/>
  <circle cx="4" cy="4" r="1" fill="rgba(15,59,70,1)"/>
  <circle cx="5" cy="4" r="1" fill="rgba(12,59,70,1)"/>
  <circle cx="6" cy="4" r="1" fill="rgba(11,59,70,1)"/>
  <circle cx="7" cy="4" r="1" fill="rgba(7,42,51,1)"/>
  <circle cx="8" cy="4" r="1" fill="rgba(99,108,110,1)"/>
  <circle cx="9" cy="4" r="1" fill="rgba(254,254,254,1)"/>
  <circle cx="10" cy="4" r="1" fill="rgba(254,254,254,1)"/>
  <circle cx="11" cy="4" r="1" fill="rgba(254,254,254,1)"/>
  <circle cx="12" cy="4" r="1" fill="rgba(254,254,254,1)"/>
  <circle cx="13" cy="4" r="1" fill="rgba(253,253,253,1)"/>
  <circle cx="14" cy="4" r="1" fill="rgba(254,254,254,1)"/>
  <circle cx="15" cy="4" r="1" fill="rgba(254,254,254,1)"/>
  <circle cx="16" cy="4" r="1" fill="rgba(254,254,254,1)"/>
  <circle cx="17" cy="4" r="1" fill="rgba(254,254,254,1)"/>
  <circle cx="18" cy="4" r="1" fill="rgba(253,253,253,1)"/>
  <circle cx="0" cy="5" r="1" fill="rgba(254,254,254,1)"/>
  <circle cx="1" cy="5" r="1" fill="rgba(185,192,194,1)"/>
  <circle cx="2" cy="5" r="1" fill="rgba(27,72,84,1)"/>
  <circle cx="3" cy="5" r="1" fill="rgba(20,150,182,1)"/>
  <circle cx="4" cy="5" r="1" fill="rgba(52,126,145,1)"/>
  <circle cx="5" cy="5" r="1" fill="rgba(50,103,116,1)"/>
  <circle cx="6" cy="5" r="1" fill="rgba(51,114,129,1)"/>
  <circle cx="7" cy="5" r="1" fill="rgba(30,70,80,1)"/>
  <circle cx="8" cy="5" r="1" fill="rgba(39,41,41,1)"/>
  <circle cx="9" cy="5" r="1" fill="rgba(254,254,254,1)"/>
  <circle cx="10" cy="5" r="1" fill="rgba(183,201,205,1)"/>
  <circle cx="11" cy="5" r="1" fill="rgba(210,218,220,1)"/>
  <circle cx="12" cy="5" r="1" fill="rgba(251,251,251,1)"/>
  <circle cx="13" cy="5" r="1" fill="rgba(254,254,254,1)"/>
  <circle cx="14" cy="5" r="1" fill="rgba(254,254,254,1)"/>
  <circle cx="15" cy="5" r="1" fill="rgba(202,216,219,1)"/>
  <circle cx="16" cy="5" r="1" fill="rgba(193,209,213,1)"/>
  <circle cx="17" cy="5" r="1" fill="rgba(244,244,244,1)"/>
  <circle cx="18" cy="5" r="1" fill="rgba(254,254,254,1)"/>
  <circle cx="0" cy="6" r="1" fill="rgba(253,253,253,1)"/>
  <circle cx="1" cy="6" r="1" fill="rgba(188,195,197,1)"/>
  <circle cx="2" cy="6" r="1" fill="rgba(38,91,104,1)"/>
  <circle cx="3" cy="6" r="1" fill="rgba(18,135,164,1)"/>
  <circle cx="4" cy="6" r="1" fill="grey6"/>
  <circle cx="5" cy="6" r="1" fill="grey55"/>
  <circle cx="6" cy="6" r="1" fill="rgba(131,131,131,1)"/>
  <circle cx="7" cy="6" r="1" fill="grey51"/>
  <circle cx="8" cy="6" r="1" fill="grey88"/>
  <circle cx="9" cy="6" r="1" fill="rgba(104,128,134,1)"/>
  <circle cx="10" cy="6" r="1" fill="rgba(6,45,55,1)"/>
  <circle cx="11" cy="6" r="1" fill="rgba(28,55,62,1)"/>
  <circle cx="12" cy="6" r="1" fill="rgba(151,153,154,1)"/>
  <circle cx="13" cy="6" r="1" fill="rgba(254,254,254,1)"/>
  <circle cx="14" cy="6" r="1" fill="rgba(67,92,98,1)"/>
  <circle cx="15" cy="6" r="1" fill="rgba(5,38,46,1)"/>
  <circle cx="16" cy="6" r="1" fill="rgba(14,26,29,1)"/>
  <circle cx="17" cy="6" r="1" fill="rgba(152,152,152,1)"/>
  <circle cx="18" cy="6" r="1" fill="rgba(253,253,253,1)"/>
  <circle cx="0" cy="7" r="1" fill="rgba(254,254,254,1)"/>
  <circle cx="1" cy="7" r="1" fill="rgba(189,196,197,1)"/>
  <circle cx="2" cy="7" r="1" fill="rgba(37,88,100,1)"/>
  <circle cx="3" cy="7" r="1" fill="rgba(19,148,180,1)"/>
  <circle cx="4" cy="7" r="1" fill="rgba(7,61,74,1)"/>
  <circle cx="5" cy="7" r="1" fill="rgba(9,73,89,1)"/>
  <circle cx="6" cy="7" r="1" fill="rgba(10,78,95,1)"/>
  <circle cx="7" cy="7" r="1" fill="rgba(7,57,69,1)"/>
  <circle cx="8" cy="7" r="1" fill="rgba(118,125,126,1)"/>
  <circle cx="9" cy="7" r="1" fill="rgba(131,132,132,1)"/>
  <circle cx="10" cy="7" r="1" fill="rgba(13,43,50,1)"/>
  <circle cx="11" cy="7" r="1" fill="rgba(13,97,118,1)"/>
  <circle cx="12" cy="7" r="1" fill="rgba(58,63,64,1)"/>
  <circle cx="13" cy="7" r="1" fill="grey95"/>
  <circle cx="14" cy="7" r="1" fill="rgba(16,38,44,1)"/>
  <circle cx="15" cy="7" r="1" fill="rgba(15,122,149,1)"/>
  <circle cx="16" cy="7" r="1" fill="rgba(29,35,36,1)"/>
  <circle cx="17" cy="7" r="1" fill="grey69"/>
  <circle cx="18" cy="7" r="1" fill="rgba(254,254,254,1)"/>
  <circle cx="0" cy="8" r="1" fill="rgba(254,254,254,1)"/>
  <circle cx="1" cy="8" r="1" fill="rgba(189,196,197,1)"/>
  <circle cx="2" cy="8" r="1" fill="rgba(35,85,97,1)"/>
  <circle cx="3" cy="8" r="1" fill="rgba(20,155,189,1)"/>
  <circle cx="4" cy="8" r="1" fill="rgba(62,120,135,1)"/>
  <circle cx="5" cy="8" r="1" fill="rgba(57,94,103,1)"/>
  <circle cx="6" cy="8" r="1" fill="rgba(60,105,116,1)"/>
  <circle cx="7" cy="8" r="1" fill="rgba(35,63,70,1)"/>
  <circle cx="8" cy="8" r="1" fill="rgba(50,53,53,1)"/>
  <circle cx="9" cy="8" r="1" fill="rgba(254,254,254,1)"/>
  <circle cx="10" cy="8" r="1" fill="rgba(28,39,42,1)"/>
  <circle cx="11" cy="8" r="1" fill="rgba(14,111,135,1)"/>
  <circle cx="12" cy="8" r="1" fill="rgba(41,65,70,1)"/>
  <circle cx="13" cy="8" r="1" fill="rgba(55,61,62,1)"/>
  <circle cx="14" cy="8" r="1" fill="rgba(8,64,78,1)"/>
  <circle cx="15" cy="8" r="1" fill="rgba(29,98,115,1)"/>
  <circle cx="16" cy="8" r="1" fill="rgba(67,67,67,1)"/>
  <circle cx="17" cy="8" r="1" fill="white"/>
  <circle cx="18" cy="8" r="1" fill="grey99"/>
  <circle cx="0" cy="9" r="1" fill="rgba(254,254,254,1)"/>
  <circle cx="1" cy="9" r="1" fill="rgba(189,196,197,1)"/>
  <circle cx="2" cy="9" r="1" fill="rgba(38,91,104,1)"/>
  <circle cx="3" cy="9" r="1" fill="rgba(16,132,160,1)"/>
  <circle cx="4" cy="9" r="1" fill="rgba(40,41,41,1)"/>
  <circle cx="5" cy="9" r="1" fill="grey83"/>
  <circle cx="6" cy="9" r="1" fill="rgba(200,200,200,1)"/>
  <circle cx="7" cy="9" r="1" fill="rgba(202,202,202,1)"/>
  <circle cx="8" cy="9" r="1" fill="rgba(241,241,241,1)"/>
  <circle cx="9" cy="9" r="1" fill="rgba(254,254,254,1)"/>
  <circle cx="10" cy="9" r="1" fill="rgba(80,93,97,1)"/>
  <circle cx="11" cy="9" r="1" fill="rgba(10,84,103,1)"/>
  <circle cx="12" cy="9" r="1" fill="rgba(34,103,120,1)"/>
  <circle cx="13" cy="9" r="1" fill="black"/>
  <circle cx="14" cy="9" r="1" fill="rgba(15,113,138,1)"/>
  <circle cx="15" cy="9" r="1" fill="rgba(50,72,77,1)"/>
  <circle cx="16" cy="9" r="1" fill="rgba(154,154,154,1)"/>
  <circle cx="17" cy="9" r="1" fill="rgba(254,254,254,1)"/>
  <circle cx="18" cy="9" r="1" fill="rgba(251,251,251,1)"/>
  <circle cx="0" cy="10" r="1" fill="rgba(253,253,253,1)"/>
  <circle cx="1" cy="10" r="1" fill="rgba(189,196,197,1)"/>
  <circle cx="2" cy="10" r="1" fill="rgba(39,91,105,1)"/>
  <circle cx="3" cy="10" r="1" fill="rgba(17,135,164,1)"/>
  <circle cx="4" cy="10" r="1" fill="rgba(19,26,27,1)"/>
  <circle cx="5" cy="10" r="1" fill="rgba(131,147,151,1)"/>
  <circle cx="6" cy="10" r="1" fill="rgba(116,137,142,1)"/>
  <circle cx="7" cy="10" r="1" fill="rgba(113,135,140,1)"/>
  <circle cx="8" cy="10" r="1" fill="rgba(151,164,168,1)"/>
  <circle cx="9" cy="10" r="1" fill="grey97"/>
  <circle cx="10" cy="10" r="1" fill="silver"/>
  <circle cx="11" cy="10" r="1" fill="rgba(14,27,30,1)"/>
  <circle cx="12" cy="10" r="1" fill="rgba(15,114,139,1)"/>
  <circle cx="13" cy="10" r="1" fill="rgba(9,71,86,1)"/>
  <circle cx="14" cy="10" r="1" fill="rgba(27,113,134,1)"/>
  <circle cx="15" cy="10" r="1" fill="rgba(51,56,58,1)"/>
  <circle cx="16" cy="10" r="1" fill="rgba(239,239,239,1)"/>
  <circle cx="17" cy="10" r="1" fill="rgba(254,254,254,1)"/>
  <circle cx="18" cy="10" r="1" fill="rgba(253,253,253,1)"/>
  <circle cx="0" cy="11" r="1" fill="rgba(254,254,254,1)"/>
  <circle cx="1" cy="11" r="1" fill="rgba(185,192,194,1)"/>
  <circle cx="2" cy="11" r="1" fill="rgba(26,72,84,1)"/>
  <circle cx="3" cy="11" r="1" fill="rgba(19,148,181,1)"/>
  <circle cx="4" cy="11" r="1" fill="rgba(15,114,138,1)"/>
  <circle cx="5" cy="11" r="1" fill="rgba(12,91,110,1)"/>
  <circle cx="6" cy="11" r="1" fill="rgba(12,97,119,1)"/>
  <circle cx="7" cy="11" r="1" fill="rgba(11,85,103,1)"/>
  <circle cx="8" cy="11" r="1" fill="rgba(21,38,43,1)"/>
  <circle cx="9" cy="11" r="1" fill="rgba(187,187,187,1)"/>
  <circle cx="10" cy="11" r="1" fill="rgba(254,254,254,1)"/>
  <circle cx="11" cy="11" r="1" fill="rgba(62,71,74,1)"/>
  <circle cx="12" cy="11" r="1" fill="rgba(9,77,93,1)"/>
  <circle cx="13" cy="11" r="1" fill="rgba(22,171,208,1)"/>
  <circle cx="14" cy="11" r="1" fill="rgba(28,51,57,1)"/>
  <circle cx="15" cy="11" r="1" fill="rgba(109,109,109,1)"/>
  <circle cx="16" cy="11" r="1" fill="white"/>
  <circle cx="17" cy="11" r="1" fill="rgba(254,254,254,1)"/>
  <circle cx="18" cy="11" r="1" fill="rgba(254,254,254,1)"/>
  <circle cx="0" cy="12" r="1" fill="rgba(254,254,254,1)"/>
  <circle cx="1" cy="12" r="1" fill="rgba(221,222,222,1)"/>
  <circle cx="2" cy="12" r="1" fill="rgba(75,81,82,1)"/>
  <circle cx="3" cy="12" r="1" fill="rgba(48,54,55,1)"/>
  <circle cx="4" cy="12" r="1" fill="rgba(73,80,82,1)"/>
  <circle cx="5" cy="12" r="1" fill="rgba(74,81,83,1)"/>
  <circle cx="6" cy="12" r="1" fill="rgba(74,81,83,1)"/>
  <circle cx="7" cy="12" r="1" fill="rgba(64,70,72,1)"/>
  <circle cx="8" cy="12" r="1" fill="rgba(79,83,84,1)"/>
  <circle cx="9" cy="12" r="1" fill="rgba(213,213,213,1)"/>
  <circle cx="10" cy="12" r="1" fill="rgba(254,254,254,1)"/>
  <circle cx="11" cy="12" r="1" fill="rgba(191,192,193,1)"/>
  <circle cx="12" cy="12" r="1" fill="rgba(41,45,46,1)"/>
  <circle cx="13" cy="12" r="1" fill="rgba(45,52,53,1)"/>
  <circle cx="14" cy="12" r="1" fill="rgba(49,50,51,1)"/>
  <circle cx="15" cy="12" r="1" fill="rgba(243,243,243,1)"/>
  <circle cx="16" cy="12" r="1" fill="rgba(254,254,254,1)"/>
  <circle cx="17" cy="12" r="1" fill="rgba(254,254,254,1)"/>
  <circle cx="18" cy="12" r="1" fill="rgba(254,254,254,1)"/>
  <circle cx="0" cy="13" r="1" fill="white"/>
  <circle cx="1" cy="13" r="1" fill="rgba(254,254,254,1)"/>
  <circle cx="2" cy="13" r="1" fill="white"/>
  <circle cx="3" cy="13" r="1" fill="rgba(254,254,254,1)"/>
  <circle cx="4" cy="13" r="1" fill="rgba(254,254,254,1)"/>
  <circle cx="5" cy="13" r="1" fill="white"/>
  <circle cx="6" cy="13" r="1" fill="white"/>
  <circle cx="7" cy="13" r="1" fill="white"/>
  <circle cx="8" cy="13" r="1" fill="white"/>
  <circle cx="9" cy="13" r="1" fill="white"/>
  <circle cx="10" cy="13" r="1" fill="rgba(253,253,253,1)"/>
  <circle cx="11" cy="13" r="1" fill="white"/>
  <circle cx="12" cy="13" r="1" fill="white"/>
  <circle cx="13" cy="13" r="1" fill="rgba(254,254,254,1)"/>
  <circle cx="14" cy="13" r="1" fill="white"/>
  <circle cx="15" cy="13" r="1" fill="rgba(254,254,254,1)"/>
  <circle cx="16" cy="13" r="1" fill="rgba(254,254,254,1)"/>
  <circle cx="17" cy="13" r="1" fill="white"/>
  <circle cx="18" cy="13" r="1" fill="white"/>
  <circle cx="0" cy="14" r="1" fill="rgba(254,254,254,1)"/>
  <circle cx="1" cy="14" r="1" fill="rgba(254,254,254,1)"/>
  <circle cx="2" cy="14" r="1" fill="grey98"/>
  <circle cx="3" cy="14" r="1" fill="rgba(249,249,249,1)"/>
  <circle cx="4" cy="14" r="1" fill="rgba(248,248,248,1)"/>
  <circle cx="5" cy="14" r="1" fill="rgba(249,249,249,1)"/>
  <circle cx="6" cy="14" r="1" fill="rgba(249,249,249,1)"/>
  <circle cx="7" cy="14" r="1" fill="rgba(249,249,249,1)"/>
  <circle cx="8" cy="14" r="1" fill="rgba(249,249,249,1)"/>
  <circle cx="9" cy="14" r="1" fill="rgba(253,253,253,1)"/>
  <circle cx="10" cy="14" r="1" fill="rgba(254,254,254,1)"/>
  <circle cx="11" cy="14" r="1" fill="rgba(254,254,254,1)"/>
  <circle cx="12" cy="14" r="1" fill="rgba(249,249,249,1)"/>
  <circle cx="13" cy="14" r="1" fill="rgba(249,249,249,1)"/>
  <circle cx="14" cy="14" r="1" fill="rgba(249,249,249,1)"/>
  <circle cx="15" cy="14" r="1" fill="rgba(254,254,254,1)"/>
  <circle cx="16" cy="14" r="1" fill="rgba(254,254,254,1)"/>
  <circle cx="17" cy="14" r="1" fill="rgba(254,254,254,1)"/>
  <circle cx="18" cy="14" r="1" fill="rgba(254,254,254,1)"/>
  <circle cx="0" cy="15" r="1" fill="rgba(254,254,254,1)"/>
  <circle cx="1" cy="15" r="1" fill="rgba(254,254,254,1)"/>
  <circle cx="2" cy="15" r="1" fill="rgba(254,254,254,1)"/>
  <circle cx="3" cy="15" r="1" fill="rgba(254,254,254,1)"/>
  <circle cx="4" cy="15" r="1" fill="rgba(253,253,253,1)"/>
  <circle cx="5" cy="15" r="1" fill="rgba(254,254,254,1)"/>
  <circle cx="6" cy="15" r="1" fill="rgba(254,254,254,1)"/>
  <circle cx="7" cy="15" r="1" fill="rgba(254,254,254,1)"/>
  <circle cx="8" cy="15" r="1" fill="rgba(254,254,254,1)"/>
  <circle cx="9" cy="15" r="1" fill="rgba(254,254,254,1)"/>
  <circle cx="10" cy="15" r="1" fill="rgba(253,253,253,1)"/>
  <circle cx="11" cy="15" r="1" fill="rgba(254,254,254,1)"/>
  <circle cx="12" cy="15" r="1" fill="rgba(254,254,254,1)"/>
  <circle cx="13" cy="15" r="1" fill="rgba(254,254,254,1)"/>
  <circle cx="14" cy="15" r="1" fill="rgba(254,254,254,1)"/>
  <circle cx="15" cy="15" r="1" fill="rgba(254,254,254,1)"/>
  <circle cx="16" cy="15" r="1" fill="rgba(254,254,254,1)"/>
  <circle cx="17" cy="15" r="1" fill="rgba(254,254,254,1)"/>
  <circle cx="18" cy="15" r="1" fill="rgba(254,254,254,1)"/>
  <circle cx="0" cy="16" r="1" fill="white"/>
  <circle cx="1" cy="16" r="1" fill="rgba(254,254,254,1)"/>
  <circle cx="2" cy="16" r="1" fill="rgba(254,254,254,1)"/>
  <circle cx="3" cy="16" r="1" fill="rgba(254,254,254,1)"/>
  <circle cx="4" cy="16" r="1" fill="rgba(253,253,253,1)"/>
  <circle cx="5" cy="16" r="1" fill="white"/>
  <circle cx="6" cy="16" r="1" fill="rgba(254,254,254,1)"/>
  <circle cx="7" cy="16" r="1" fill="white"/>
  <circle cx="8" cy="16" r="1" fill="rgba(254,254,254,1)"/>
  <circle cx="9" cy="16" r="1" fill="white"/>
  <circle cx="10" cy="16" r="1" fill="rgba(254,254,254,1)"/>
  <circle cx="11" cy="16" r="1" fill="white"/>
  <circle cx="12" cy="16" r="1" fill="white"/>
  <circle cx="13" cy="16" r="1" fill="rgba(254,254,254,1)"/>
  <circle cx="14" cy="16" r="1" fill="rgba(254,254,254,1)"/>
  <circle cx="15" cy="16" r="1" fill="rgba(254,254,254,1)"/>
  <circle cx="16" cy="16" r="1" fill="white"/>
  <circle cx="17" cy="16" r="1" fill="rgba(254,254,254,1)"/>
  <circle cx="18" cy="16" r="1" fill="white"/>
</svg>
